<mxfile host="Electron" modified="2023-08-26T03:43:32.034Z" agent="Mozilla/5.0 (Macintosh; Intel Mac OS X 10_15_7) AppleWebKit/537.36 (KHTML, like Gecko) draw.io/21.6.8 Chrome/114.0.5735.289 Electron/25.5.0 Safari/537.36" etag="kECeZ0iqATyUoC1unjXl" version="21.6.8" type="device">
  <diagram name="Page-1" id="5Mwa_W6wFosUETOQfhfM">
    <mxGraphModel dx="1964" dy="818" grid="1" gridSize="10" guides="1" tooltips="1" connect="1" arrows="1" fold="1" page="1" pageScale="1" pageWidth="850" pageHeight="1100" math="0" shadow="0">
      <root>
        <mxCell id="0" />
        <mxCell id="1" parent="0" />
        <mxCell id="o1bM48Pfgw_54I8eiOrk-1" value="&lt;h1&gt;Love Calculator&lt;/h1&gt;&lt;div style=&quot;color: rgb(204, 204, 204); background-color: rgb(31, 31, 31); font-family: Menlo, Monaco, &amp;quot;Courier New&amp;quot;, monospace; line-height: 18px;&quot;&gt;&lt;div&gt;You are going to write a program that tests the compatibility between two people.&lt;/div&gt;&lt;br&gt;&lt;div&gt;&lt;span style=&quot;color: #ce9178;&quot;&gt;To work out the love score between two people:&lt;/span&gt;&lt;/div&gt;&lt;br&gt;&lt;div&gt;&lt;span style=&quot;color: #ce9178;&quot;&gt;Take both people&#39;s names and check for the number of times the letters in the word TRUE occurs. &lt;/span&gt;&lt;/div&gt;&lt;br&gt;&lt;div&gt;&lt;span style=&quot;color: #ce9178;&quot;&gt;Then check for the number of times the letters in the word LOVE occurs. &lt;/span&gt;&lt;/div&gt;&lt;br&gt;&lt;div&gt;&lt;span style=&quot;color: #ce9178;&quot;&gt;Then combine these numbers to make a 2 digit number.&lt;/span&gt;&lt;/div&gt;&lt;br&gt;&lt;div&gt;&lt;span style=&quot;color: #ce9178;&quot;&gt;For Love Scores less than 10 or greater than 90, the message should be:&lt;/span&gt;&lt;/div&gt;&lt;br&gt;&lt;div&gt;&lt;span style=&quot;color: #ce9178;&quot;&gt;&quot;Your score is **x**, you go together like coke and mentos.&quot;&lt;/span&gt;&lt;/div&gt;&lt;div&gt;&lt;span style=&quot;color: #ce9178;&quot;&gt;For Love Scores between 40 and 50, the message should be:&lt;/span&gt;&lt;/div&gt;&lt;br&gt;&lt;div&gt;&lt;span style=&quot;color: #ce9178;&quot;&gt;&quot;Your score is **y**, you are alright together.&quot;&lt;/span&gt;&lt;/div&gt;&lt;div&gt;&lt;span style=&quot;color: #ce9178;&quot;&gt;Otherwise, the message will just be their score. e.g.:&lt;/span&gt;&lt;/div&gt;&lt;br&gt;&lt;div&gt;&lt;span style=&quot;color: #ce9178;&quot;&gt;&quot;Your score is **z**.&quot;&lt;/span&gt;&lt;/div&gt;&lt;/div&gt;" style="text;html=1;strokeColor=none;fillColor=none;spacing=5;spacingTop=-20;whiteSpace=wrap;overflow=hidden;rounded=0;" vertex="1" parent="1">
          <mxGeometry x="30" y="20" width="780" height="440" as="geometry" />
        </mxCell>
        <mxCell id="o1bM48Pfgw_54I8eiOrk-6" style="edgeStyle=orthogonalEdgeStyle;rounded=0;orthogonalLoop=1;jettySize=auto;html=1;exitX=0.5;exitY=1;exitDx=0;exitDy=0;" edge="1" parent="1" source="o1bM48Pfgw_54I8eiOrk-2" target="o1bM48Pfgw_54I8eiOrk-4">
          <mxGeometry relative="1" as="geometry" />
        </mxCell>
        <mxCell id="o1bM48Pfgw_54I8eiOrk-7" style="edgeStyle=orthogonalEdgeStyle;rounded=0;orthogonalLoop=1;jettySize=auto;html=1;exitX=0.5;exitY=1;exitDx=0;exitDy=0;" edge="1" parent="1" source="o1bM48Pfgw_54I8eiOrk-2" target="o1bM48Pfgw_54I8eiOrk-5">
          <mxGeometry relative="1" as="geometry" />
        </mxCell>
        <mxCell id="o1bM48Pfgw_54I8eiOrk-2" value="Start" style="rounded=0;whiteSpace=wrap;html=1;" vertex="1" parent="1">
          <mxGeometry x="360" y="490" width="120" height="60" as="geometry" />
        </mxCell>
        <mxCell id="o1bM48Pfgw_54I8eiOrk-9" style="edgeStyle=orthogonalEdgeStyle;rounded=0;orthogonalLoop=1;jettySize=auto;html=1;exitX=0.5;exitY=1;exitDx=0;exitDy=0;entryX=0.5;entryY=0;entryDx=0;entryDy=0;" edge="1" parent="1" source="o1bM48Pfgw_54I8eiOrk-4" target="o1bM48Pfgw_54I8eiOrk-8">
          <mxGeometry relative="1" as="geometry" />
        </mxCell>
        <mxCell id="o1bM48Pfgw_54I8eiOrk-4" value="Name1" style="shape=parallelogram;perimeter=parallelogramPerimeter;whiteSpace=wrap;html=1;fixedSize=1;" vertex="1" parent="1">
          <mxGeometry x="240" y="650" width="120" height="60" as="geometry" />
        </mxCell>
        <mxCell id="o1bM48Pfgw_54I8eiOrk-10" style="edgeStyle=orthogonalEdgeStyle;rounded=0;orthogonalLoop=1;jettySize=auto;html=1;exitX=0.5;exitY=1;exitDx=0;exitDy=0;" edge="1" parent="1" source="o1bM48Pfgw_54I8eiOrk-5">
          <mxGeometry relative="1" as="geometry">
            <mxPoint x="400" y="800" as="targetPoint" />
          </mxGeometry>
        </mxCell>
        <mxCell id="o1bM48Pfgw_54I8eiOrk-5" value="Name2" style="shape=parallelogram;perimeter=parallelogramPerimeter;whiteSpace=wrap;html=1;fixedSize=1;" vertex="1" parent="1">
          <mxGeometry x="460" y="650" width="120" height="60" as="geometry" />
        </mxCell>
        <mxCell id="o1bM48Pfgw_54I8eiOrk-21" style="edgeStyle=orthogonalEdgeStyle;rounded=0;orthogonalLoop=1;jettySize=auto;html=1;exitX=1;exitY=0.5;exitDx=0;exitDy=0;entryX=0;entryY=0.5;entryDx=0;entryDy=0;dashed=1;" edge="1" parent="1" source="o1bM48Pfgw_54I8eiOrk-8" target="o1bM48Pfgw_54I8eiOrk-19">
          <mxGeometry relative="1" as="geometry">
            <mxPoint x="590" y="890" as="targetPoint" />
          </mxGeometry>
        </mxCell>
        <mxCell id="o1bM48Pfgw_54I8eiOrk-29" style="edgeStyle=orthogonalEdgeStyle;rounded=0;orthogonalLoop=1;jettySize=auto;html=1;exitX=0;exitY=0.5;exitDx=0;exitDy=0;" edge="1" parent="1" source="o1bM48Pfgw_54I8eiOrk-8" target="o1bM48Pfgw_54I8eiOrk-11">
          <mxGeometry relative="1" as="geometry" />
        </mxCell>
        <mxCell id="o1bM48Pfgw_54I8eiOrk-31" style="edgeStyle=orthogonalEdgeStyle;rounded=0;orthogonalLoop=1;jettySize=auto;html=1;exitX=0.5;exitY=1;exitDx=0;exitDy=0;" edge="1" parent="1" source="o1bM48Pfgw_54I8eiOrk-8" target="o1bM48Pfgw_54I8eiOrk-17">
          <mxGeometry relative="1" as="geometry" />
        </mxCell>
        <mxCell id="o1bM48Pfgw_54I8eiOrk-8" value="How many letters are in the the word &lt;br&gt;&quot;TRUE&quot; from both names?&lt;br&gt;" style="shape=parallelogram;perimeter=parallelogramPerimeter;whiteSpace=wrap;html=1;fixedSize=1;" vertex="1" parent="1">
          <mxGeometry x="270" y="800" width="260" height="70" as="geometry" />
        </mxCell>
        <mxCell id="o1bM48Pfgw_54I8eiOrk-65" style="edgeStyle=orthogonalEdgeStyle;rounded=0;orthogonalLoop=1;jettySize=auto;html=1;exitX=0.25;exitY=1;exitDx=0;exitDy=0;entryX=0;entryY=0.5;entryDx=0;entryDy=0;" edge="1" parent="1" source="o1bM48Pfgw_54I8eiOrk-11" target="o1bM48Pfgw_54I8eiOrk-38">
          <mxGeometry relative="1" as="geometry">
            <Array as="points">
              <mxPoint x="75" y="1290" />
            </Array>
          </mxGeometry>
        </mxCell>
        <mxCell id="o1bM48Pfgw_54I8eiOrk-11" value="Count of each letter in &quot;TRUE&quot;&lt;br&gt;trueCount (int)" style="rounded=0;whiteSpace=wrap;html=1;" vertex="1" parent="1">
          <mxGeometry x="30" y="1130" width="180" height="60" as="geometry" />
        </mxCell>
        <mxCell id="o1bM48Pfgw_54I8eiOrk-22" style="edgeStyle=orthogonalEdgeStyle;rounded=0;orthogonalLoop=1;jettySize=auto;html=1;exitX=1;exitY=0.5;exitDx=0;exitDy=0;entryX=0;entryY=0.5;entryDx=0;entryDy=0;dashed=1;" edge="1" parent="1" source="o1bM48Pfgw_54I8eiOrk-17" target="o1bM48Pfgw_54I8eiOrk-19">
          <mxGeometry relative="1" as="geometry" />
        </mxCell>
        <mxCell id="o1bM48Pfgw_54I8eiOrk-30" style="edgeStyle=orthogonalEdgeStyle;rounded=0;orthogonalLoop=1;jettySize=auto;html=1;exitX=1;exitY=0.5;exitDx=0;exitDy=0;entryX=0.5;entryY=0;entryDx=0;entryDy=0;" edge="1" parent="1" source="o1bM48Pfgw_54I8eiOrk-17" target="o1bM48Pfgw_54I8eiOrk-25">
          <mxGeometry relative="1" as="geometry" />
        </mxCell>
        <mxCell id="o1bM48Pfgw_54I8eiOrk-17" value="How many letters are in the the word &lt;br&gt;&quot;LOVE&quot; from both names?" style="shape=parallelogram;perimeter=parallelogramPerimeter;whiteSpace=wrap;html=1;fixedSize=1;" vertex="1" parent="1">
          <mxGeometry x="270" y="970" width="260" height="70" as="geometry" />
        </mxCell>
        <mxCell id="o1bM48Pfgw_54I8eiOrk-19" value="Note:&lt;br style=&quot;border-color: var(--border-color);&quot;&gt;When counting the letters, case doesn&#39;t matter. Make each letter lower case using lower()" style="rounded=1;whiteSpace=wrap;html=1;dashed=1;" vertex="1" parent="1">
          <mxGeometry x="650" y="870" width="180" height="110" as="geometry" />
        </mxCell>
        <mxCell id="o1bM48Pfgw_54I8eiOrk-66" style="edgeStyle=orthogonalEdgeStyle;rounded=0;orthogonalLoop=1;jettySize=auto;html=1;exitX=0.5;exitY=1;exitDx=0;exitDy=0;entryX=1;entryY=0.5;entryDx=0;entryDy=0;" edge="1" parent="1" source="o1bM48Pfgw_54I8eiOrk-25" target="o1bM48Pfgw_54I8eiOrk-38">
          <mxGeometry relative="1" as="geometry">
            <Array as="points">
              <mxPoint x="710" y="1290" />
            </Array>
          </mxGeometry>
        </mxCell>
        <mxCell id="o1bM48Pfgw_54I8eiOrk-25" value="Count of each letter in &quot;LOVE&quot;&lt;br&gt;loveCount (int)" style="rounded=0;whiteSpace=wrap;html=1;" vertex="1" parent="1">
          <mxGeometry x="620" y="1130" width="180" height="60" as="geometry" />
        </mxCell>
        <mxCell id="o1bM48Pfgw_54I8eiOrk-44" style="edgeStyle=orthogonalEdgeStyle;rounded=0;orthogonalLoop=1;jettySize=auto;html=1;exitX=0.5;exitY=1;exitDx=0;exitDy=0;" edge="1" parent="1" source="o1bM48Pfgw_54I8eiOrk-38" target="o1bM48Pfgw_54I8eiOrk-43">
          <mxGeometry relative="1" as="geometry" />
        </mxCell>
        <mxCell id="o1bM48Pfgw_54I8eiOrk-38" value="Convert both counts to a string and combine:&lt;br&gt;strTrueLove = str(trueCount) + str(loveCount)" style="shape=parallelogram;perimeter=parallelogramPerimeter;whiteSpace=wrap;html=1;fixedSize=1;" vertex="1" parent="1">
          <mxGeometry x="290" y="1240" width="220" height="100" as="geometry" />
        </mxCell>
        <mxCell id="o1bM48Pfgw_54I8eiOrk-46" style="edgeStyle=orthogonalEdgeStyle;rounded=0;orthogonalLoop=1;jettySize=auto;html=1;exitX=0.5;exitY=1;exitDx=0;exitDy=0;entryX=0.583;entryY=0;entryDx=0;entryDy=0;entryPerimeter=0;" edge="1" parent="1" source="o1bM48Pfgw_54I8eiOrk-43" target="o1bM48Pfgw_54I8eiOrk-45">
          <mxGeometry relative="1" as="geometry" />
        </mxCell>
        <mxCell id="o1bM48Pfgw_54I8eiOrk-43" value="Convert string back&lt;br&gt;&amp;nbsp;into an int:&lt;br&gt;trueLoveCount" style="shape=parallelogram;perimeter=parallelogramPerimeter;whiteSpace=wrap;html=1;fixedSize=1;" vertex="1" parent="1">
          <mxGeometry x="315" y="1400" width="170" height="60" as="geometry" />
        </mxCell>
        <mxCell id="o1bM48Pfgw_54I8eiOrk-50" style="edgeStyle=orthogonalEdgeStyle;rounded=0;orthogonalLoop=1;jettySize=auto;html=1;exitX=0;exitY=0.5;exitDx=0;exitDy=0;" edge="1" parent="1" source="o1bM48Pfgw_54I8eiOrk-45">
          <mxGeometry relative="1" as="geometry">
            <mxPoint x="40" y="1710" as="targetPoint" />
          </mxGeometry>
        </mxCell>
        <mxCell id="o1bM48Pfgw_54I8eiOrk-56" style="edgeStyle=orthogonalEdgeStyle;rounded=0;orthogonalLoop=1;jettySize=auto;html=1;exitX=1;exitY=0.5;exitDx=0;exitDy=0;entryX=0.5;entryY=0;entryDx=0;entryDy=0;" edge="1" parent="1" source="o1bM48Pfgw_54I8eiOrk-45" target="o1bM48Pfgw_54I8eiOrk-52">
          <mxGeometry relative="1" as="geometry">
            <Array as="points">
              <mxPoint x="660" y="1595" />
            </Array>
          </mxGeometry>
        </mxCell>
        <mxCell id="o1bM48Pfgw_54I8eiOrk-45" value="Is trueLoveValue &amp;lt; 10 or trueLoveCount&amp;nbsp;&amp;gt; 90" style="shape=parallelogram;perimeter=parallelogramPerimeter;whiteSpace=wrap;html=1;fixedSize=1;" vertex="1" parent="1">
          <mxGeometry x="150" y="1530" width="430" height="130" as="geometry" />
        </mxCell>
        <mxCell id="o1bM48Pfgw_54I8eiOrk-51" value="&quot;Your score is trueLoveCount, you go together like coke and mentos&quot;" style="ellipse;whiteSpace=wrap;html=1;" vertex="1" parent="1">
          <mxGeometry x="-20" y="1710" width="120" height="80" as="geometry" />
        </mxCell>
        <mxCell id="o1bM48Pfgw_54I8eiOrk-57" style="edgeStyle=orthogonalEdgeStyle;rounded=0;orthogonalLoop=1;jettySize=auto;html=1;exitX=0;exitY=0.5;exitDx=0;exitDy=0;" edge="1" parent="1" source="o1bM48Pfgw_54I8eiOrk-52">
          <mxGeometry relative="1" as="geometry">
            <mxPoint x="410" y="1900" as="targetPoint" />
          </mxGeometry>
        </mxCell>
        <mxCell id="o1bM48Pfgw_54I8eiOrk-58" style="edgeStyle=orthogonalEdgeStyle;rounded=0;orthogonalLoop=1;jettySize=auto;html=1;exitX=1;exitY=0.5;exitDx=0;exitDy=0;" edge="1" parent="1" source="o1bM48Pfgw_54I8eiOrk-52">
          <mxGeometry relative="1" as="geometry">
            <mxPoint x="860" y="1910" as="targetPoint" />
          </mxGeometry>
        </mxCell>
        <mxCell id="o1bM48Pfgw_54I8eiOrk-52" value="Is 40 &amp;lt; trueLoveCount&amp;nbsp;&amp;lt; 50" style="shape=parallelogram;perimeter=parallelogramPerimeter;whiteSpace=wrap;html=1;fixedSize=1;" vertex="1" parent="1">
          <mxGeometry x="560" y="1720" width="200" height="90" as="geometry" />
        </mxCell>
        <mxCell id="o1bM48Pfgw_54I8eiOrk-54" value="Yes" style="text;html=1;strokeColor=none;fillColor=none;align=center;verticalAlign=middle;whiteSpace=wrap;rounded=0;" vertex="1" parent="1">
          <mxGeometry x="40" y="1550" width="60" height="30" as="geometry" />
        </mxCell>
        <mxCell id="o1bM48Pfgw_54I8eiOrk-55" value="No" style="text;html=1;strokeColor=none;fillColor=none;align=center;verticalAlign=middle;whiteSpace=wrap;rounded=0;" vertex="1" parent="1">
          <mxGeometry x="610" y="1550" width="60" height="30" as="geometry" />
        </mxCell>
        <mxCell id="o1bM48Pfgw_54I8eiOrk-59" value="&quot;Your score is trueLoveCount, you are alright together.&quot;" style="ellipse;whiteSpace=wrap;html=1;" vertex="1" parent="1">
          <mxGeometry x="350" y="1900" width="120" height="80" as="geometry" />
        </mxCell>
        <mxCell id="o1bM48Pfgw_54I8eiOrk-60" value="Yes" style="text;html=1;strokeColor=none;fillColor=none;align=center;verticalAlign=middle;whiteSpace=wrap;rounded=0;" vertex="1" parent="1">
          <mxGeometry x="410" y="1735" width="60" height="30" as="geometry" />
        </mxCell>
        <mxCell id="o1bM48Pfgw_54I8eiOrk-61" value="&quot;Your score is trueLoveCount&quot;" style="ellipse;whiteSpace=wrap;html=1;" vertex="1" parent="1">
          <mxGeometry x="800" y="1910" width="120" height="80" as="geometry" />
        </mxCell>
        <mxCell id="o1bM48Pfgw_54I8eiOrk-62" value="No" style="text;html=1;strokeColor=none;fillColor=none;align=center;verticalAlign=middle;whiteSpace=wrap;rounded=0;" vertex="1" parent="1">
          <mxGeometry x="810" y="1735" width="60" height="30" as="geometry" />
        </mxCell>
      </root>
    </mxGraphModel>
  </diagram>
</mxfile>
